<?xml version="1.0" encoding="utf-8"?>
<!-- Generator: Adobe Illustrator 26.0.0, SVG Export Plug-In . SVG Version: 6.00 Build 0)  -->
<svg version="1.1" id="Capa_1" xmlns="http://www.w3.org/2000/svg" xmlns:xlink="http://www.w3.org/1999/xlink" x="0px" y="0px"
	 viewBox="0 0 77 97" style="enable-background:new 0 0 77 97;" xml:space="preserve">
<style type="text/css">
	.st0{fill:url(#SVGID_1_);}
	.st1{fill:url(#SVGID_00000037680375995317476930000017837002049867861407_);}
	.st2{fill:url(#SVGID_00000125566207863414290550000002720468224866573502_);}
	.st3{opacity:0.4;fill:url(#SVGID_00000018939991633583140620000008562858057627413674_);}
</style>
<g>
	<linearGradient id="SVGID_1_" gradientUnits="userSpaceOnUse" x1="73.4655" y1="6.5341" x2="6.2073" y2="81.6931">
		<stop  offset="0" style="stop-color:#FFBA24"/>
		<stop  offset="1" style="stop-color:#FF5500"/>
	</linearGradient>
	<polygon class="st0" points="68.52,69.37 60.13,69.93 58.55,78.18 50.49,75.83 46.18,83.04 39.4,78.07 32.89,83.38 28.22,76.4 
		20.29,79.15 18.29,70.99 9.89,70.87 10.8,62.52 2.95,59.53 6.66,51.99 0.31,46.5 6.37,40.69 2.28,33.35 9.97,29.97 8.63,21.68 
		17.01,21.12 18.59,12.87 26.66,15.22 30.97,8.01 37.74,12.97 44.26,7.67 48.93,14.65 56.86,11.89 58.86,20.06 67.26,20.18 
		66.35,28.53 74.2,31.52 70.48,39.05 76.84,44.55 70.77,50.36 74.87,57.69 67.18,61.08 	"/>
	
		<radialGradient id="SVGID_00000124163604448985177950000005211315394180974231_" cx="-141.3832" cy="27.7535" r="53.8068" gradientTransform="matrix(-1 0 0 1 -96.3271 0)" gradientUnits="userSpaceOnUse">
		<stop  offset="0" style="stop-color:#FFF4C3"/>
		<stop  offset="0.1559" style="stop-color:#FFE036"/>
		<stop  offset="1" style="stop-color:#FA761C"/>
	</radialGradient>
	<path style="fill:url(#SVGID_00000124163604448985177950000005211315394180974231_);" d="M10.23,45.52
		c0,15.65,12.69,28.35,28.34,28.35c15.65,0,28.34-12.69,28.34-28.35c0-15.65-12.69-28.34-28.34-28.34
		C22.92,17.18,10.23,29.87,10.23,45.52z"/>
	<g>
		
			<radialGradient id="SVGID_00000171699231604962262680000004642246517989141677_" cx="1085.7218" cy="-1879.7495" r="8.0769" gradientTransform="matrix(-0.8392 1.1536 -1.6186 -1.3126 -2081.7549 -3686.5579)" gradientUnits="userSpaceOnUse">
			<stop  offset="0" style="stop-color:#FFFFFF"/>
			<stop  offset="1" style="stop-color:#FFFFFF;stop-opacity:0"/>
		</radialGradient>
		<path style="fill:url(#SVGID_00000171699231604962262680000004642246517989141677_);" d="M42.89,42.61
			c-7.22-5.86-10.04-14.77-6.3-19.92c3.74-5.15,12.63-4.57,19.85,1.29c7.22,5.86,10.03,14.78,6.29,19.92
			C59,49.04,50.11,48.46,42.89,42.61z"/>
		
			<radialGradient id="SVGID_00000086692886030180176760000009529029248814059161_" cx="-2995.7637" cy="2912.2124" r="7.7937" gradientTransform="matrix(-1.1717 -1.1007 0.222 -0.7283 -4133.9927 -1116.1052)" gradientUnits="userSpaceOnUse">
			<stop  offset="0" style="stop-color:#FFFFFF"/>
			<stop  offset="1" style="stop-color:#FFFFFF;stop-opacity:0"/>
		</radialGradient>
		<path style="opacity:0.4;fill:url(#SVGID_00000086692886030180176760000009529029248814059161_);" d="M13.52,51.79
			c0.96-3.13,5.82-1.84,10.86,2.9c5.04,4.74,8.36,11.12,7.4,14.26c-0.95,3.13-5.82,1.84-10.86-2.9
			C15.88,61.3,12.57,54.92,13.52,51.79z"/>
	</g>
</g>
</svg>
