<?xml version="1.0" encoding="utf-8"?>
<!-- Generator: Adobe Illustrator 26.0.0, SVG Export Plug-In . SVG Version: 6.00 Build 0)  -->
<svg version="1.1" id="Capa_1" xmlns="http://www.w3.org/2000/svg" xmlns:xlink="http://www.w3.org/1999/xlink" x="0px" y="0px"
	 viewBox="0 0 77 97" style="enable-background:new 0 0 77 97;" xml:space="preserve">
<style type="text/css">
	.st0{fill:url(#SVGID_1_);}
</style>
<radialGradient id="SVGID_1_" cx="59.4311" cy="30.884" r="62.6546" gradientUnits="userSpaceOnUse">
	<stop  offset="0" style="stop-color:#28CBE9"/>
	<stop  offset="1" style="stop-color:#0A4FBB"/>
</radialGradient>
<path class="st0" d="M68.91,59.2l-6.72-3.88l2.08-1.2c1.65-0.95,2.22-3.06,1.26-4.71c-0.95-1.65-3.06-2.21-4.71-1.26l-5.53,3.19
	l-5.1-2.95c0.22-0.92,0.35-1.87,0.35-2.85c0-0.98-0.13-1.93-0.35-2.85l5.1-2.95l5.53,3.19c0.54,0.31,1.14,0.46,1.72,0.46
	c1.19,0,2.35-0.62,2.99-1.73c0.95-1.65,0.39-3.76-1.26-4.71l-2.08-1.2l6.72-3.88c1.65-0.95,2.21-3.06,1.26-4.71
	c-0.95-1.65-3.06-2.22-4.71-1.26l-6.72,3.88l0-2.4c0-1.91-1.55-3.45-3.45-3.45l0,0c-1.9,0-3.45,1.54-3.45,3.45l0,6.38l-5.11,2.95
	c-1.38-1.31-3.06-2.3-4.93-2.85v-5.89l5.53-3.19c1.65-0.95,2.21-3.06,1.26-4.71c-0.95-1.65-3.06-2.22-4.71-1.26l-2.08,1.2v-7.76
	c0-1.9-1.54-3.45-3.45-3.45c-1.91,0-3.45,1.54-3.45,3.45v7.76l-2.08-1.2c-1.65-0.95-3.76-0.39-4.71,1.26
	c-0.95,1.65-0.39,3.76,1.26,4.71l5.53,3.19v5.89c-1.87,0.55-3.55,1.54-4.93,2.86l-5.11-2.95v-6.38c0-1.9-1.54-3.45-3.45-3.45
	c-1.91,0-3.45,1.54-3.45,3.45v2.4l-6.72-3.88c-1.65-0.96-3.76-0.39-4.71,1.26c-0.95,1.65-0.39,3.76,1.26,4.71l6.72,3.88l-2.08,1.2
	c-1.65,0.95-2.21,3.06-1.26,4.71c0.64,1.11,1.8,1.72,2.99,1.72c0.58,0,1.18-0.15,1.72-0.46l5.53-3.19l5.11,2.95
	c-0.22,0.92-0.35,1.87-0.35,2.85c0,0.98,0.13,1.93,0.35,2.85l-5.11,2.95l-5.53-3.19c-1.65-0.96-3.76-0.39-4.71,1.26
	c-0.96,1.65-0.39,3.76,1.26,4.71l2.08,1.2L7.81,59.2c-1.65,0.95-2.21,3.06-1.26,4.71c0.64,1.11,1.8,1.72,2.99,1.72
	c0.59,0,1.18-0.15,1.72-0.46l6.72-3.88v2.4c0,1.9,1.54,3.45,3.45,3.45c1.9,0,3.45-1.54,3.45-3.45l0-6.38l5.11-2.95
	c1.38,1.31,3.06,2.3,4.93,2.86v5.89l-5.53,3.19c-1.65,0.95-2.22,3.06-1.26,4.71c0.95,1.65,3.06,2.22,4.71,1.26l2.08-1.2v7.76
	c0,1.9,1.54,3.45,3.45,3.45c1.9,0,3.45-1.54,3.45-3.45v-7.76l2.08,1.2c0.54,0.31,1.14,0.46,1.72,0.46c1.19,0,2.35-0.62,2.99-1.72
	c0.95-1.65,0.39-3.76-1.26-4.71l-5.53-3.19v-5.89c1.87-0.55,3.55-1.54,4.93-2.85l5.11,2.95v6.38c0,1.91,1.54,3.45,3.45,3.45
	c1.9,0,3.45-1.54,3.45-3.45v-2.4l6.72,3.88c0.54,0.31,1.14,0.46,1.72,0.46c1.19,0,2.35-0.62,2.99-1.72
	C71.12,62.26,70.56,60.15,68.91,59.2z M38.36,50.82c-2.91,0-5.28-2.37-5.28-5.28c0-2.91,2.37-5.28,5.28-5.28
	c2.91,0,5.28,2.37,5.28,5.28C43.64,48.45,41.27,50.82,38.36,50.82z"/>
</svg>
